<svg width="124" height="71" viewBox="0 0 124 71" fill="none" xmlns="http://www.w3.org/2000/svg">
<path d="M0.0990346 49.8167C-0.202076 50.2771 0.193905 50.4471 0.981743 50.4181C2.64404 50.3808 6.20375 49.3977 8.45177 48.4935C8.03516 48.8875 5.00755 51.6376 1.50147 52.2722C-1.34877 52.7907 0.750754 54.7527 0.750754 54.7527C1.42722 55.7523 2.62754 56.0178 3.76599 56.0054C5.01993 56.0054 6.19962 55.6445 6.52136 55.5408C5.01993 57.5899 4.52495 59.4606 5.78302 59.3569C6.41824 59.3403 7.54431 58.772 9.28085 57.3825C8.45589 59.3403 9.05399 60.5722 10.1099 60.6386C10.8937 60.7257 11.9455 60.1491 12.8571 58.7305C12.9024 60.0786 13.583 60.9787 14.5111 60.9994C15.0515 61.0368 15.6867 60.7672 16.326 60.0993C17.0561 61.1322 17.6913 61.4765 18.2193 61.435C18.2977 61.435 18.3719 61.4267 18.4462 61.4101C18.1203 63.4343 17.6996 64.9897 17.0974 66.2424C16.8581 65.5871 16.4869 64.8943 15.897 64.2805C15.897 64.2805 16.3343 65.8525 16.5116 67.2628C16.491 67.296 16.4704 67.3292 16.4498 67.3582C16.2105 66.4581 15.5671 65.2262 13.8759 64.2597C13.8759 64.2597 15.9177 65.7986 15.6454 68.4367L15.5588 68.4574C15.2989 68.0011 14.2801 66.5079 12.0775 66.4374C12.0775 66.4374 14.8452 67.6776 14.4369 69.8138C14.4369 69.8138 16.9076 70.1705 19.3 69.4529C20.5787 69.2123 21.7749 68.922 22.2781 68.8017C23.8002 68.4367 30.9113 70.3364 28.1477 68.8515C25.6151 67.491 25.0954 63.6541 24.8355 58.967C26.5184 60.427 28.2715 61.1695 29.3109 61.1156C30.4576 61.099 30.8 60.1782 29.3934 58.2784C30.4782 58.967 31.9714 60.0081 32.9902 60.0371C33.6172 60.0828 34.0751 59.7675 34.1699 58.7928C35.7456 59.9085 36.8469 60.4893 37.4038 60.4395C38.4102 60.4395 37.8905 58.6808 35.4775 54.6697C37.7998 56.2252 39.7673 56.669 41.2605 56.5778C43.8302 56.4492 45.0141 54.7444 44.1808 54.3711C41.7843 53.8111 38.3071 52.239 36.2653 49.6507C37.2924 50.5757 38.4515 51.1647 39.1362 51.1689C40.2004 51.2394 40.254 50.0406 37.3089 46.7887C39.1156 48.4395 40.8026 48.9746 42.0813 48.9414C42.1803 48.9414 42.2752 48.929 42.3701 48.9249C42.3948 48.9249 42.4196 48.9248 42.4443 48.9207C43.7106 48.7963 44.5108 47.7925 44.4861 47.8091C44.8284 47.2159 44.2551 46.8924 43.7436 46.6974C40.8233 45.2996 38.336 42.7818 36.4592 40.3926L36.5458 40.4133C35.4734 39.0445 34.5948 37.7172 33.9513 36.6594C35.296 37.6632 36.3602 38.0822 36.9501 38.1071C37.6801 38.1734 37.7791 37.6881 36.9336 36.9664C34.8217 35.2574 33.1016 31.852 32.0498 29.3508C32.4788 29.637 32.8335 29.7905 33.0727 29.7697C33.7451 29.8071 33.6213 28.7162 31.7817 25.8375C33.1635 27.0985 34.3597 27.6999 34.9908 27.646C35.5229 27.6419 35.7085 27.2312 35.3579 26.4182C35.1228 25.8707 34.7309 25.4061 34.2978 24.9996C29.7193 20.7024 29.1624 15.7415 29.1335 15.4428C29.81 16.2434 30.602 16.8282 30.7298 16.8697C31.0598 16.9941 30.9278 16.3719 29.942 14.6464C31.3527 15.7539 32.5118 16.2351 32.9242 16.177C33.3326 16.1687 33.2295 15.7788 32.3055 15.0529C31.6538 14.5676 30.3834 13.1532 30.3957 13.1988C27.8177 9.99244 25.4418 4.71628 24.4148 2.28145C24.4354 2.28145 24.4601 2.26901 24.4808 2.26901C24.1425 1.46846 23.9487 0.974854 23.9487 0.974854C23.9404 1.01218 23.928 1.04952 23.9239 1.08685C23.895 1.01633 23.8827 0.974854 23.8827 0.974854C23.8125 1.31498 21.5398 11.6143 16.425 15.5963C15.2041 16.5462 15.5011 17.0854 16.3384 17.0315C16.953 17.019 17.9058 16.6664 18.7968 15.924C18.3431 16.9361 18.4998 16.9112 18.1946 17.8818C16.7715 21.4366 14.5854 25.7255 13.1169 26.7335C12.1888 27.3681 12.1558 27.8202 12.7127 27.8368C12.7333 27.8368 12.7622 27.8368 12.7869 27.8368C12.8199 27.8368 12.8488 27.8368 12.8859 27.8368C13.3603 27.8119 14.1729 27.5174 15.1876 26.8496C14.5936 28.7618 12.9643 33.0964 9.70984 35.6473C7.57318 37.319 8.22078 37.9951 9.60259 37.9329C9.76758 37.9329 9.94082 37.9121 10.1264 37.8872C9.15711 40.1271 6.73997 44.0344 1.41072 45.2498C-0.416566 45.7227 0.62701 47.303 3.02352 47.1661C3.5185 47.1454 4.07535 47.0417 4.67757 46.8467C3.90623 47.1869 0.93637 48.5598 0.103159 49.8374L0.0990346 49.8167Z" fill="#447C2A"/>
<path d="M122.606 48.8418C122.907 49.3022 122.511 49.4723 121.723 49.4432C120.061 49.4059 116.501 48.4229 114.253 47.5186C114.67 47.9127 117.697 50.6627 121.203 51.2974C124.054 51.8159 121.954 53.7778 121.954 53.7778C121.278 54.7775 120.077 55.0429 118.939 55.0305C117.685 55.0305 116.505 54.6696 116.183 54.5659C117.685 56.615 118.18 58.4857 116.922 58.382C116.287 58.3654 115.16 57.7972 113.424 56.4076C114.249 58.3654 113.651 59.5974 112.595 59.6637C111.811 59.7508 110.759 59.1743 109.848 57.7557C109.802 59.1038 109.122 60.0039 108.194 60.0246C107.653 60.0619 107.018 59.7923 106.379 59.1245C105.649 60.1573 105.013 60.5016 104.485 60.4601C104.407 60.4601 104.333 60.4518 104.259 60.4352C104.584 62.4594 105.005 64.0149 105.607 65.2676C105.847 64.6122 106.218 63.9195 106.808 63.3056C106.808 63.3056 106.371 64.8777 106.193 66.288C106.214 66.3211 106.234 66.3543 106.255 66.3834C106.494 65.4833 107.138 64.2513 108.829 63.2849C108.829 63.2849 106.787 64.8237 107.059 67.4618L107.146 67.4826C107.406 67.0263 108.425 65.533 110.627 65.4625C110.627 65.4625 107.86 66.7028 108.268 68.8389C108.268 68.8389 105.797 69.1957 103.405 68.4781C102.126 68.2375 100.93 67.9471 100.427 67.8268C98.9046 67.4618 91.7934 69.3616 94.5571 67.8766C97.0897 66.5161 97.6094 62.6793 97.8693 57.9921C96.1864 59.4522 94.4333 60.1947 93.3939 60.1407C92.2472 60.1241 91.9048 59.2033 93.3114 57.3036C92.2265 57.9921 90.7334 59.0332 89.7145 59.0623C89.0876 59.1079 88.6297 58.7927 88.5348 57.8179C86.9592 58.9337 85.8578 59.5144 85.301 59.4646C84.2945 59.4646 84.8143 57.7059 87.2273 53.6949C84.905 55.2503 82.9375 55.6942 81.4443 55.6029C78.8745 55.4743 77.6907 53.7695 78.5239 53.3962C80.9204 52.8362 84.3977 51.2642 86.4394 48.6759C85.4124 49.6009 84.2533 50.1899 83.5686 50.194C82.5044 50.2645 82.4508 49.0658 85.3959 45.8138C83.5892 47.4647 81.9022 47.9998 80.6235 47.9666C80.5245 47.9666 80.4296 47.9541 80.3347 47.95C80.31 47.95 80.2852 47.95 80.2605 47.9458C78.9942 47.8214 78.194 46.8176 78.2187 46.8342C77.8763 46.2411 78.4497 45.9175 78.9612 45.7226C81.8815 44.3247 84.3688 41.8069 86.2456 39.4177L86.159 39.4385C87.2314 38.0696 88.11 36.7423 88.7535 35.6846C87.4088 36.6884 86.3446 37.1073 85.7547 37.1322C85.0246 37.1986 84.9256 36.7133 85.7712 35.9915C87.8831 34.2826 89.6032 30.8771 90.655 28.3759C90.226 28.6622 89.8713 28.8156 89.632 28.7949C88.9597 28.8322 89.0834 27.7413 90.9231 24.8627C89.5413 26.1236 88.3451 26.7251 87.714 26.6711C87.1819 26.667 86.9963 26.2564 87.3469 25.4434C87.582 24.8958 87.9739 24.4313 88.407 24.0248C92.9855 19.7275 93.5424 14.7666 93.5712 14.468C92.8948 15.2685 92.1028 15.8534 91.9749 15.8948C91.6449 16.0193 91.7769 15.3971 92.7628 13.6716C91.3521 14.7791 90.193 15.2602 89.7805 15.2021C89.3722 15.1938 89.4753 14.8039 90.3993 14.0781C91.051 13.5927 92.3214 12.1783 92.309 12.2239C94.887 9.01758 97.2629 3.74143 98.29 1.3066C98.2694 1.3066 98.2446 1.29415 98.224 1.29415C98.5623 0.493603 98.7561 0 98.7561 0C98.7644 0.0373313 98.7767 0.0746626 98.7809 0.111994C98.8097 0.0414792 98.8221 0 98.8221 0C98.8922 0.34013 101.165 10.6394 106.28 14.6214C107.501 15.5713 107.204 16.1105 106.366 16.0566C105.752 16.0442 104.799 15.6916 103.908 14.9491C104.362 15.9612 104.205 15.9363 104.51 16.9069C105.933 20.4617 108.119 24.7507 109.588 25.7586C110.516 26.3932 110.549 26.8454 109.992 26.862C109.971 26.862 109.943 26.862 109.918 26.862C109.885 26.862 109.856 26.862 109.819 26.862C109.344 26.8371 108.532 26.5426 107.517 25.8747C108.111 27.7869 109.74 32.1215 112.995 34.6725C115.132 36.3441 114.484 37.0202 113.102 36.958C112.937 36.958 112.764 36.9373 112.578 36.9124C113.548 39.1522 115.965 43.0596 121.294 44.2749C123.121 44.7478 122.078 46.3282 119.681 46.1913C119.186 46.1705 118.629 46.0668 118.027 45.8719C118.799 46.212 121.768 47.585 122.602 48.8625L122.606 48.8418Z" fill="#447C2A"/>
<path d="M123.872 70.9875L0 68.9302L123.872 66.8728V70.9875Z" fill="#447C2A"/>
<path d="M95.9101 41.5621L60.676 19.52L10.5389 56.9716H15.0061L60.6801 22.9462L94.6644 44.2168L95.9101 41.5621Z" fill="#447C2A"/>
<path d="M60.5398 38.2439H56.7573V44.9884H60.5398V38.2439Z" fill="#447C2A"/>
<path d="M60.5398 46.7388H56.7573V53.4833H60.5398V46.7388Z" fill="#447C2A"/>
<path d="M66.0588 38.2439H62.2764V44.9884H66.0588V38.2439Z" fill="#447C2A"/>
<path d="M66.0588 46.7388H62.2764V53.4833H66.0588V46.7388Z" fill="#447C2A"/>
<path d="M95.6295 47.2821L95.0892 48.1532L60.713 26.584L20.0424 56.9717H18.3636L60.6512 25.3354L95.6295 47.2821Z" fill="#447C2A"/>
</svg>
