<svg width="163" height="86" viewBox="0 0 163 86" fill="none" xmlns="http://www.w3.org/2000/svg">
<g clip-path="url(#clip0_1_709)">
<path d="M35.5862 81.3817C35.5862 81.6507 35.5445 81.8905 35.4592 82.099C35.3759 82.3075 35.253 82.4826 35.0927 82.6244C34.9323 82.7662 34.7345 82.8746 34.5013 82.9497C34.268 83.0247 33.9932 83.0602 33.6766 83.0602H33.2768V84.5926C33.2768 84.6177 33.2685 84.6406 33.2518 84.6594C33.2352 84.6781 33.2102 84.6948 33.1727 84.7073C33.1352 84.7198 33.0852 84.7302 33.0248 84.7365C32.9624 84.7428 32.8832 84.7469 32.7874 84.7469C32.6917 84.7469 32.6146 84.7428 32.5521 84.7365C32.4897 84.7282 32.4397 84.7198 32.4022 84.7073C32.3647 84.6948 32.3397 84.6781 32.3252 84.6594C32.3106 84.6406 32.3022 84.6177 32.3022 84.5926V80.2725C32.3022 80.1558 32.3335 80.0682 32.3939 80.0119C32.4543 79.9556 32.5334 79.9243 32.6334 79.9243H33.7641C33.8786 79.9243 33.9869 79.9285 34.0889 79.9368C34.191 79.9452 34.3138 79.9639 34.4575 79.9931C34.6012 80.0223 34.7449 80.0744 34.8928 80.1516C35.0406 80.2287 35.1655 80.3246 35.2697 80.4435C35.3738 80.5623 35.4529 80.6979 35.5071 80.8563C35.5612 81.0127 35.5883 81.1899 35.5883 81.3859L35.5862 81.3817ZM34.5658 81.4526C34.5658 81.2837 34.5367 81.1461 34.4763 81.0377C34.4159 80.9293 34.343 80.848 34.2576 80.7959C34.1702 80.7437 34.0806 80.7104 33.9848 80.6979C33.889 80.6853 33.7912 80.677 33.6912 80.677H33.2768V82.3075H33.7141C33.8703 82.3075 33.9994 82.2866 34.1056 82.2449C34.2118 82.2032 34.2972 82.1448 34.3638 82.0698C34.4305 81.9947 34.4804 81.903 34.5158 81.7987C34.5512 81.6945 34.5679 81.5798 34.5679 81.4547L34.5658 81.4526Z" fill="#447C2A"/>
<path d="M39.2242 84.3444C39.2242 84.4153 39.2221 84.4758 39.2159 84.5237C39.2096 84.5717 39.2013 84.6113 39.1888 84.6405C39.1763 84.6697 39.1617 84.6926 39.143 84.7051C39.1242 84.7176 39.1034 84.726 39.0826 84.726H36.6732C36.592 84.726 36.5233 84.7009 36.4671 84.653C36.4109 84.605 36.3838 84.5258 36.3838 84.4174V80.2307C36.3838 80.1223 36.4109 80.0431 36.4671 79.9951C36.5233 79.9471 36.592 79.9221 36.6732 79.9221H39.068C39.0909 79.9221 39.1097 79.9284 39.1263 79.9409C39.143 79.9534 39.1575 79.9742 39.17 80.0055C39.1825 80.0368 39.1909 80.0764 39.1971 80.1244C39.2034 80.1723 39.2054 80.2328 39.2054 80.3078C39.2054 80.3767 39.2034 80.435 39.1971 80.483C39.1909 80.5309 39.1825 80.5706 39.17 80.5997C39.1575 80.6289 39.143 80.6519 39.1263 80.6644C39.1097 80.679 39.0888 80.6852 39.068 80.6852H37.3542V81.8591H38.8035C38.8264 81.8591 38.8452 81.8653 38.8639 81.8799C38.8827 81.8924 38.8972 81.9154 38.9097 81.9425C38.9222 81.9717 38.9306 82.0092 38.9368 82.0572C38.9431 82.1051 38.9451 82.1635 38.9451 82.2344C38.9451 82.3053 38.9431 82.3657 38.9368 82.4116C38.9306 82.4575 38.9222 82.495 38.9097 82.5242C38.8972 82.5534 38.8827 82.5742 38.8639 82.5867C38.8452 82.5993 38.8244 82.6055 38.8035 82.6055H37.3542V83.9608H39.0826C39.1055 83.9608 39.1242 83.967 39.143 83.9816C39.1617 83.9941 39.1763 84.0171 39.1888 84.0462C39.2013 84.0754 39.2096 84.1151 39.2159 84.163C39.2221 84.211 39.2242 84.2714 39.2242 84.3423V84.3444Z" fill="#447C2A"/>
<path d="M42.9974 83.3332C42.9974 83.5751 42.9516 83.7898 42.86 83.9733C42.7684 84.1568 42.6372 84.3111 42.4685 84.4383C42.2998 84.5634 42.0957 84.6572 41.8604 84.7177C41.6251 84.7802 41.3627 84.8094 41.0774 84.8094C40.9192 84.8094 40.7734 84.799 40.6422 84.776C40.511 84.7531 40.3944 84.726 40.2965 84.6926C40.1987 84.6593 40.1195 84.6259 40.0612 84.5946C40.0009 84.5634 39.9592 84.5363 39.9342 84.5154C39.9092 84.4946 39.8905 84.4737 39.878 84.4508C39.8655 84.4278 39.8551 84.3966 39.8488 84.3569C39.8405 84.3152 39.8363 84.2652 39.8322 84.2027C39.828 84.1401 39.8259 84.065 39.8259 83.9733C39.8259 83.8691 39.8343 83.8003 39.853 83.7627C39.8717 83.7273 39.8988 83.7085 39.9363 83.7085C39.9654 83.7085 40.0071 83.7231 40.0612 83.7544C40.1154 83.7857 40.1841 83.8211 40.2695 83.8607C40.3549 83.9003 40.4548 83.9358 40.5735 83.9691C40.6922 84.0004 40.8317 84.0171 40.9921 84.0171C41.1253 84.0171 41.2461 84.0004 41.3544 83.9691C41.4627 83.9379 41.5543 83.8899 41.6314 83.8315C41.7063 83.7711 41.7646 83.7002 41.8084 83.6189C41.85 83.5355 41.8708 83.4437 41.8708 83.3416C41.8708 83.231 41.8521 83.1289 41.8125 83.0413C41.773 82.9537 41.7147 82.8766 41.6335 82.814C41.5522 82.7515 41.4481 82.7035 41.3232 82.6702C41.1982 82.6368 41.0483 82.6201 40.8734 82.6201H40.3653C40.3278 82.6201 40.2986 82.616 40.2757 82.6056C40.2528 82.5951 40.2362 82.5784 40.2216 82.5493C40.207 82.5222 40.1987 82.4846 40.1945 82.4367C40.1903 82.3887 40.1883 82.3241 40.1883 82.2448C40.1883 82.174 40.1903 82.1135 40.1966 82.0697C40.2008 82.0238 40.2112 81.9884 40.2237 81.9592C40.2362 81.93 40.2549 81.9133 40.2757 81.9008C40.2966 81.8904 40.3215 81.8841 40.3528 81.8841H40.8671C41.0171 81.8841 41.1503 81.8695 41.2669 81.8404C41.3836 81.8112 41.4794 81.7674 41.5585 81.709C41.6355 81.6506 41.6959 81.5797 41.7355 81.4984C41.7751 81.415 41.7959 81.3212 41.7959 81.2149C41.7959 81.1252 41.7813 81.0439 41.7542 80.9709C41.7251 80.8959 41.6813 80.8333 41.623 80.7833C41.5647 80.7332 41.4877 80.6936 41.3961 80.6644C41.3044 80.6352 41.1961 80.6227 41.0691 80.6227C40.9213 80.6227 40.788 80.6394 40.6693 80.6707C40.5506 80.7019 40.4486 80.7374 40.359 80.7749C40.2716 80.8125 40.1966 80.8479 40.1362 80.8813C40.0758 80.9146 40.03 80.9313 40.0008 80.9313C39.9842 80.9313 39.9696 80.9271 39.9571 80.9167C39.9446 80.9063 39.9342 80.8896 39.9238 80.8625C39.9134 80.8354 39.9071 80.802 39.903 80.7562C39.8988 80.7124 39.8967 80.654 39.8967 80.581C39.8967 80.531 39.8967 80.4851 39.9009 80.4434C39.9051 80.4017 39.9092 80.3642 39.9155 80.3287C39.9238 80.2933 39.9321 80.2641 39.9446 80.237C39.9571 80.2099 39.9759 80.1849 40.0029 80.1598C40.03 80.1348 40.0821 80.1035 40.1633 80.0639C40.2424 80.0243 40.3424 79.9868 40.4569 79.9534C40.5735 79.9201 40.7047 79.893 40.8505 79.87C40.9962 79.8471 41.1503 79.8367 41.3148 79.8367C41.571 79.8367 41.7959 79.8638 41.9875 79.918C42.179 79.9722 42.3394 80.0514 42.4685 80.1536C42.5976 80.2558 42.6934 80.3829 42.7579 80.5331C42.8225 80.6832 42.8537 80.8541 42.8537 81.0481C42.8537 81.2023 42.8329 81.342 42.7913 81.4671C42.7496 81.5943 42.6892 81.7048 42.6122 81.8007C42.5351 81.8966 42.4414 81.978 42.3331 82.0447C42.2249 82.1093 42.1062 82.1573 41.975 82.1865V82.1948C42.1249 82.2115 42.2644 82.2532 42.3894 82.3199C42.5143 82.3866 42.6205 82.47 42.7101 82.5701C42.7996 82.6702 42.8683 82.7869 42.9183 82.9162C42.9683 83.0455 42.9933 83.1852 42.9933 83.3332H42.9974Z" fill="#447C2A"/>
<path d="M47.7224 84.5987C47.7224 84.6237 47.714 84.6446 47.6974 84.6634C47.6807 84.6821 47.6557 84.6967 47.6183 84.7092C47.5808 84.7217 47.5308 84.7301 47.4683 84.7363C47.4058 84.7426 47.3267 84.7447 47.233 84.7447C47.1393 84.7447 47.0602 84.7426 46.9977 84.7363C46.9352 84.7301 46.8852 84.7217 46.8498 84.7092C46.8144 84.6967 46.7895 84.6821 46.7728 84.6634C46.7561 84.6446 46.7499 84.6237 46.7499 84.5987V82.0675C46.7499 81.9716 46.7499 81.8757 46.7541 81.784C46.7561 81.6922 46.7603 81.6088 46.7645 81.5379H46.7582C46.7374 81.5734 46.7145 81.613 46.6874 81.6589C46.6603 81.7047 46.6312 81.7527 46.6 81.8048C46.5687 81.8549 46.5354 81.907 46.5021 81.9612C46.4667 82.0154 46.4334 82.0654 46.398 82.1155L44.73 84.605C44.7091 84.6321 44.6904 84.655 44.6696 84.6759C44.6487 84.6946 44.6217 84.7113 44.5884 84.7217C44.555 84.7322 44.5134 84.7405 44.4655 84.7447C44.4176 84.7488 44.3551 84.7509 44.2781 84.7509C44.1823 84.7509 44.1032 84.7488 44.0449 84.7426C43.9845 84.7363 43.9387 84.728 43.9053 84.7155C43.872 84.703 43.8491 84.6863 43.8366 84.6675C43.8241 84.6488 43.8179 84.6237 43.8179 84.5966V80.0534C43.8179 80.0284 43.8262 80.0076 43.8429 79.9888C43.8595 79.97 43.8866 79.9554 43.9241 79.9429C43.9616 79.9304 44.0115 79.9221 44.074 79.9158C44.1365 79.9096 44.2135 79.9075 44.3072 79.9075C44.4009 79.9075 44.4822 79.9096 44.5446 79.9158C44.6071 79.9221 44.655 79.9304 44.6925 79.9429C44.73 79.9554 44.755 79.97 44.7695 79.9888C44.7841 80.0076 44.7924 80.0284 44.7924 80.0534V82.5992C44.7924 82.6784 44.7924 82.7618 44.7883 82.8515C44.7862 82.9411 44.782 83.0266 44.7779 83.1121H44.7862C44.8278 83.0371 44.882 82.9495 44.9465 82.8452C45.0111 82.741 45.0777 82.6388 45.1464 82.5408L46.8144 80.0513C46.8311 80.0263 46.8498 80.0055 46.8707 79.9867C46.8894 79.9679 46.9165 79.9533 46.9498 79.9408C46.9831 79.9283 47.0248 79.92 47.0747 79.9158C47.1247 79.9116 47.1872 79.9075 47.2642 79.9075C47.358 79.9075 47.435 79.9096 47.4933 79.9158C47.5516 79.9221 47.5974 79.9304 47.6328 79.9429C47.6682 79.9554 47.6911 79.97 47.7057 79.9888C47.7182 80.0076 47.7265 80.0305 47.7265 80.0576V84.605L47.7224 84.5987Z" fill="#447C2A"/>
<path d="M53.2283 85.8581C53.2283 85.8831 53.2221 85.904 53.2096 85.9207C53.1971 85.9373 53.1742 85.9519 53.1429 85.9624C53.1117 85.9728 53.068 85.9832 53.0138 85.9895C52.9597 85.9957 52.8889 85.9978 52.8035 85.9978C52.7181 85.9978 52.6515 85.9957 52.5973 85.9895C52.5432 85.9832 52.5016 85.9749 52.4682 85.9624C52.4349 85.9519 52.412 85.9373 52.3974 85.9207C52.3849 85.904 52.3766 85.8831 52.3766 85.8581V84.726H49.1843V85.8581C49.1843 85.8831 49.178 85.904 49.1635 85.9207C49.1489 85.9373 49.126 85.9519 49.0927 85.9624C49.0593 85.9728 49.0156 85.9832 48.9615 85.9895C48.9073 85.9957 48.8386 85.9978 48.7532 85.9978C48.6678 85.9978 48.5991 85.9957 48.545 85.9895C48.4908 85.9832 48.4471 85.9749 48.4138 85.9624C48.3805 85.9519 48.3576 85.9373 48.3451 85.9207C48.3326 85.904 48.3263 85.8831 48.3263 85.8581V84.1317C48.3222 84.0608 48.3347 84.0087 48.3659 83.9774C48.3971 83.9462 48.4429 83.9316 48.5054 83.9316H48.7282C48.7886 83.8482 48.8449 83.7606 48.8969 83.6709C48.9511 83.5813 49.001 83.477 49.051 83.354C49.101 83.231 49.1489 83.0851 49.1968 82.9162C49.2447 82.7473 49.2926 82.5388 49.3384 82.2949C49.3863 82.0509 49.4321 81.759 49.4821 81.4254C49.53 81.0897 49.5799 80.6956 49.632 80.2432C49.6466 80.1327 49.6757 80.0514 49.7174 79.9993C49.759 79.9492 49.8236 79.9221 49.911 79.9221H52.362C52.4495 79.9221 52.5161 79.9471 52.5661 79.9993C52.6161 80.0493 52.6411 80.1285 52.6411 80.2307V83.9316H53.0492C53.1159 83.9316 53.1638 83.9503 53.1908 83.9858C53.2179 84.0212 53.2325 84.0713 53.2325 84.1359V85.8581H53.2283ZM51.6665 80.7102H50.5462C50.5024 81.0855 50.4587 81.4171 50.415 81.7027C50.3713 81.9883 50.3275 82.2386 50.2859 82.4554C50.2421 82.6701 50.1984 82.8557 50.1547 83.0121C50.111 83.1685 50.0651 83.3019 50.0193 83.4166C49.9735 83.5312 49.9256 83.6272 49.8756 83.7106C49.8257 83.794 49.7757 83.8669 49.7236 83.9337H51.6665V80.7123V80.7102Z" fill="#447C2A"/>
<path d="M56.7955 84.3444C56.7955 84.4153 56.7934 84.4758 56.7871 84.5237C56.7809 84.5717 56.7726 84.6113 56.7601 84.6405C56.7476 84.6697 56.733 84.6926 56.7143 84.7051C56.6955 84.7176 56.6747 84.726 56.6539 84.726H54.2445C54.1633 84.726 54.0946 84.7009 54.0384 84.653C53.9821 84.605 53.9551 84.5258 53.9551 84.4174V80.2307C53.9551 80.1223 53.9821 80.0431 54.0384 79.9951C54.0946 79.9471 54.1633 79.9221 54.2445 79.9221H56.6393C56.6622 79.9221 56.6809 79.9284 56.6976 79.9409C56.7143 79.9534 56.7288 79.9742 56.7413 80.0055C56.7538 80.0368 56.7622 80.0764 56.7684 80.1244C56.7746 80.1723 56.7767 80.2328 56.7767 80.3078C56.7767 80.3767 56.7746 80.435 56.7684 80.483C56.7622 80.5309 56.7538 80.5706 56.7413 80.5997C56.7288 80.6289 56.7143 80.6519 56.6976 80.6644C56.6809 80.679 56.6601 80.6852 56.6393 80.6852H54.9255V81.8591H56.3748C56.3977 81.8591 56.4165 81.8653 56.4352 81.8799C56.454 81.8924 56.4685 81.9154 56.481 81.9425C56.4935 81.9717 56.5019 82.0092 56.5081 82.0572C56.5143 82.1051 56.5164 82.1635 56.5164 82.2344C56.5164 82.3053 56.5143 82.3657 56.5081 82.4116C56.5019 82.4575 56.4935 82.495 56.481 82.5242C56.4685 82.5534 56.454 82.5742 56.4352 82.5867C56.4165 82.5993 56.3957 82.6055 56.3748 82.6055H54.9255V83.9608H56.6539C56.6768 83.9608 56.6955 83.967 56.7143 83.9816C56.733 83.9941 56.7476 84.0171 56.7601 84.0462C56.7726 84.0754 56.7809 84.1151 56.7871 84.163C56.7934 84.211 56.7955 84.2714 56.7955 84.3423V84.3444Z" fill="#447C2A"/>
<path d="M61.4372 84.5926C61.4372 84.6176 61.4288 84.6406 61.4122 84.6593C61.3955 84.6781 61.3705 84.6948 61.333 84.7073C61.2956 84.7198 61.2456 84.7302 61.1852 84.7365C61.1227 84.7427 61.0457 84.7469 60.952 84.7469C60.8582 84.7469 60.7749 84.7427 60.7125 84.7365C60.65 84.7281 60.6 84.7198 60.5646 84.7073C60.5292 84.6948 60.5022 84.6781 60.4876 84.6593C60.4709 84.6406 60.4626 84.6176 60.4626 84.5926V82.6515H58.6676V84.5926C58.6676 84.6176 58.6613 84.6406 58.6447 84.6593C58.6301 84.6781 58.6051 84.6948 58.5676 84.7073C58.5301 84.7198 58.4822 84.7302 58.4198 84.7365C58.3573 84.7427 58.2781 84.7469 58.1824 84.7469C58.0866 84.7469 58.0095 84.7427 57.947 84.7365C57.8846 84.7281 57.8346 84.7198 57.7971 84.7073C57.7596 84.6948 57.7326 84.6781 57.718 84.6593C57.7034 84.6406 57.693 84.6176 57.693 84.5926V80.0557C57.693 80.0306 57.7013 80.0098 57.718 79.9889C57.7346 79.9702 57.7596 79.9535 57.7971 79.941C57.8346 79.9285 57.8846 79.918 57.947 79.9118C58.0095 79.9055 58.0887 79.9014 58.1824 79.9014C58.2761 79.9014 58.3573 79.9055 58.4198 79.9118C58.4822 79.918 58.5301 79.9285 58.5676 79.941C58.6051 79.9535 58.6301 79.9702 58.6447 79.9889C58.6592 80.0098 58.6676 80.0306 58.6676 80.0557V81.8196H60.4626V80.0557C60.4626 80.0306 60.4709 80.0098 60.4876 79.9889C60.5042 79.9702 60.5292 79.9535 60.5646 79.941C60.6 79.9285 60.65 79.918 60.7125 79.9118C60.7749 79.9055 60.8562 79.9014 60.952 79.9014C61.0477 79.9014 61.1227 79.9055 61.1852 79.9118C61.2477 79.918 61.2956 79.9285 61.333 79.941C61.3705 79.9535 61.3976 79.9702 61.4122 79.9889C61.4288 80.0098 61.4372 80.0306 61.4372 80.0557V84.5926Z" fill="#447C2A"/>
<path d="M66.8285 85.8581C66.8285 85.8831 66.8223 85.9039 66.8098 85.9206C66.7973 85.9373 66.7765 85.9519 66.7452 85.9623C66.714 85.9728 66.6703 85.9832 66.6161 85.9894C66.5599 85.9957 66.4912 85.9978 66.4058 85.9978C66.3204 85.9978 66.2517 85.9957 66.1976 85.9894C66.1434 85.9832 66.0997 85.9748 66.0664 85.9623C66.033 85.9519 66.0101 85.9373 65.9956 85.9206C65.981 85.9039 65.9747 85.8831 65.9747 85.8581V84.7259H62.8011C62.7137 84.7259 62.645 84.7009 62.595 84.6488C62.545 84.5967 62.5179 84.5216 62.5179 84.4173V80.0493C62.5179 80.0242 62.5263 80.0034 62.5429 79.9846C62.5596 79.9659 62.5846 79.9513 62.6221 79.9388C62.6595 79.9263 62.7095 79.9179 62.772 79.9117C62.8345 79.9054 62.9136 79.9033 63.0073 79.9033C63.101 79.9033 63.1822 79.9054 63.2447 79.9117C63.3072 79.9179 63.3551 79.9263 63.3926 79.9388C63.43 79.9513 63.455 79.9659 63.4696 79.9846C63.4842 80.0034 63.4925 80.0242 63.4925 80.0493V83.9169H65.2646V80.0493C65.2646 80.0242 65.273 80.0034 65.2896 79.9846C65.3063 79.9659 65.3313 79.9513 65.3688 79.9388C65.4062 79.9263 65.4562 79.9179 65.5187 79.9117C65.5812 79.9054 65.6603 79.9033 65.754 79.9033C65.8477 79.9033 65.9289 79.9054 65.9914 79.9117C66.0539 79.9179 66.1018 79.9263 66.1392 79.9388C66.1767 79.9513 66.2017 79.9659 66.2163 79.9846C66.2309 80.0034 66.2392 80.0242 66.2392 80.0493V83.9169H66.6619C66.7244 83.9169 66.766 83.9315 66.789 83.9586C66.8119 83.9857 66.8243 84.04 66.8243 84.1171V85.8581H66.8285Z" fill="#447C2A"/>
<path d="M71.4576 84.5987C71.4576 84.6237 71.4493 84.6446 71.4326 84.6634C71.416 84.6821 71.391 84.6967 71.3535 84.7092C71.316 84.7217 71.266 84.7301 71.2036 84.7363C71.1411 84.7426 71.0619 84.7447 70.9682 84.7447C70.8745 84.7447 70.7954 84.7426 70.7329 84.7363C70.6705 84.7301 70.6205 84.7217 70.5851 84.7092C70.5497 84.6967 70.5247 84.6821 70.508 84.6634C70.4914 84.6446 70.4851 84.6237 70.4851 84.5987V82.0675C70.4851 81.9716 70.4851 81.8757 70.4893 81.784C70.4914 81.6922 70.4955 81.6088 70.4997 81.5379H70.4935C70.4726 81.5734 70.4497 81.613 70.4226 81.6589C70.3956 81.7047 70.3664 81.7527 70.3352 81.8048C70.304 81.8549 70.2706 81.907 70.2373 81.9612C70.2019 82.0154 70.1686 82.0654 70.1332 82.1155L68.4652 84.605C68.4444 84.6321 68.4256 84.655 68.4048 84.6759C68.384 84.6946 68.3569 84.7113 68.3236 84.7217C68.2903 84.7322 68.2486 84.7405 68.2007 84.7447C68.1528 84.7488 68.0904 84.7509 68.0133 84.7509C67.9175 84.7509 67.8384 84.7488 67.7801 84.7426C67.7197 84.7363 67.6739 84.728 67.6406 84.7155C67.6072 84.703 67.5843 84.6863 67.5718 84.6675C67.5593 84.6488 67.5531 84.6237 67.5531 84.5966V80.0534C67.5531 80.0284 67.5614 80.0076 67.5781 79.9888C67.5947 79.97 67.6218 79.9554 67.6593 79.9429C67.6968 79.9304 67.7468 79.9221 67.8092 79.9158C67.8717 79.9096 67.9488 79.9075 68.0425 79.9075C68.1362 79.9075 68.2174 79.9096 68.2799 79.9158C68.3423 79.9221 68.3902 79.9304 68.4277 79.9429C68.4652 79.9554 68.4902 79.97 68.5048 79.9888C68.5193 80.0076 68.5277 80.0284 68.5277 80.0534V82.5992C68.5277 82.6784 68.5277 82.7618 68.5235 82.8515C68.5214 82.9411 68.5173 83.0266 68.5131 83.1121H68.5214C68.5631 83.0371 68.6172 82.9495 68.6818 82.8452C68.7463 82.741 68.813 82.6388 68.8817 82.5408L70.5497 80.0513C70.5663 80.0263 70.5851 80.0055 70.6059 79.9867C70.6246 79.9679 70.6517 79.9533 70.685 79.9408C70.7184 79.9283 70.76 79.92 70.81 79.9158C70.86 79.9116 70.9224 79.9075 70.9995 79.9075C71.0932 79.9075 71.1702 79.9096 71.2285 79.9158C71.2868 79.9221 71.3327 79.9304 71.3681 79.9429C71.4035 79.9554 71.4264 79.97 71.4409 79.9888C71.4534 80.0076 71.4618 80.0305 71.4618 80.0576V84.605L71.4576 84.5987Z" fill="#447C2A"/>
<path d="M75.8516 84.5988C75.8516 84.6238 75.8453 84.6446 75.8287 84.6634C75.8141 84.6822 75.7891 84.6968 75.7516 84.7093C75.7162 84.7218 75.6662 84.7301 75.6037 84.7364C75.5413 84.7426 75.4621 84.7447 75.3684 84.7447C75.2747 84.7447 75.1935 84.7426 75.131 84.7364C75.0686 84.7301 75.0186 84.7218 74.9811 84.7093C74.9415 84.6968 74.9166 84.6822 74.902 84.6634C74.8874 84.6446 74.8791 84.6238 74.8791 84.5988V82.8015H74.5188C74.371 82.8015 74.2564 82.8161 74.1794 82.8453C74.1023 82.8745 74.0315 82.9203 73.9711 82.9829C73.9108 83.0454 73.8566 83.1226 73.8108 83.2143C73.7629 83.3081 73.7192 83.4166 73.6734 83.5437L73.311 84.5842C73.2985 84.6133 73.2819 84.6384 73.2631 84.6613C73.2423 84.6822 73.2132 84.6988 73.1715 84.7134C73.1319 84.7259 73.0778 84.7364 73.0112 84.7405C72.9445 84.7447 72.8591 84.7468 72.755 84.7468C72.6405 84.7468 72.5509 84.7426 72.4864 84.7364C72.4218 84.728 72.3719 84.7176 72.3365 84.7051C72.3011 84.6905 72.2802 84.6759 72.2698 84.6592C72.2594 84.6425 72.2552 84.6238 72.2552 84.6029C72.2552 84.5779 72.2594 84.5487 72.2677 84.5133C72.2761 84.4778 72.2948 84.4236 72.3219 84.3527L72.6821 83.4103C72.728 83.2873 72.7779 83.1789 72.8258 83.0871C72.8737 82.9954 72.9299 82.9141 72.9903 82.8411C73.0507 82.7681 73.1153 82.7077 73.184 82.6576C73.2527 82.6076 73.3277 82.568 73.4089 82.5388C73.2548 82.4971 73.1194 82.4429 73.0028 82.3741C72.8862 82.3053 72.7863 82.2239 72.7071 82.1259C72.628 82.028 72.5655 81.9154 72.526 81.7882C72.4843 81.661 72.4656 81.5171 72.4656 81.3587C72.4656 81.1418 72.5031 80.9437 72.578 80.7665C72.653 80.5893 72.7654 80.4392 72.9133 80.3162C73.0611 80.1931 73.2465 80.0972 73.4672 80.0284C73.6879 79.9596 73.9961 79.9263 74.3918 79.9263H75.5663C75.6454 79.9263 75.712 79.9513 75.7683 79.9992C75.8245 80.0472 75.8516 80.1264 75.8516 80.2349V84.6029V84.5988ZM74.8812 80.6748H74.3814C74.1711 80.6748 74.0149 80.6915 73.9108 80.7227C73.8066 80.754 73.7213 80.802 73.6567 80.8624C73.5921 80.9229 73.5443 80.9959 73.513 81.0814C73.4818 81.1668 73.4693 81.2607 73.4693 81.3649C73.4693 81.4692 73.4859 81.5609 73.5172 81.6464C73.5484 81.7319 73.5984 81.8069 73.665 81.8695C73.7317 81.932 73.8171 81.9821 73.9212 82.0154C74.0253 82.0509 74.1731 82.0676 74.3668 82.0676H74.8812V80.6748Z" fill="#447C2A"/>
<path d="M83.1149 85.8581C83.1149 85.8831 83.1087 85.904 83.0962 85.9207C83.0837 85.9373 83.0608 85.9519 83.0295 85.9624C82.9983 85.9728 82.9546 85.9832 82.9004 85.9895C82.8463 85.9957 82.7755 85.9978 82.6901 85.9978C82.6047 85.9978 82.5381 85.9957 82.4839 85.9895C82.4298 85.9832 82.3882 85.9749 82.3548 85.9624C82.3215 85.9519 82.2986 85.9373 82.284 85.9207C82.2715 85.904 82.2632 85.8831 82.2632 85.8581V84.726H79.0709V85.8581C79.0709 85.8831 79.0646 85.904 79.0501 85.9207C79.0355 85.9373 79.0126 85.9519 78.9793 85.9624C78.9459 85.9728 78.9022 85.9832 78.8481 85.9895C78.7939 85.9957 78.7252 85.9978 78.6398 85.9978C78.5545 85.9978 78.4857 85.9957 78.4316 85.9895C78.3774 85.9832 78.3337 85.9749 78.3004 85.9624C78.2671 85.9519 78.2442 85.9373 78.2317 85.9207C78.2192 85.904 78.2129 85.8831 78.2129 85.8581V84.1317C78.2088 84.0608 78.2213 84.0087 78.2525 83.9774C78.2837 83.9462 78.3296 83.9316 78.392 83.9316H78.6148C78.6752 83.8482 78.7315 83.7606 78.7835 83.6709C78.8377 83.5813 78.8876 83.477 78.9376 83.354C78.9876 83.231 79.0355 83.0851 79.0834 82.9162C79.1313 82.7473 79.1792 82.5388 79.225 82.2949C79.2729 82.0509 79.3187 81.759 79.3687 81.4254C79.4166 81.0897 79.4665 80.6956 79.5186 80.2432C79.5332 80.1327 79.5623 80.0514 79.604 79.9993C79.6456 79.9492 79.7102 79.9221 79.7976 79.9221H82.2486C82.3361 79.9221 82.4027 79.9471 82.4527 79.9993C82.5027 80.0493 82.5277 80.1285 82.5277 80.2307V83.9316H82.9358C83.0025 83.9316 83.0504 83.9503 83.0774 83.9858C83.1045 84.0212 83.1191 84.0713 83.1191 84.1359V85.8581H83.1149ZM81.5531 80.7102H80.4328C80.389 81.0855 80.3453 81.4171 80.3016 81.7027C80.2579 81.9883 80.2141 82.2386 80.1725 82.4554C80.1287 82.6701 80.085 82.8557 80.0413 83.0121C79.9976 83.1685 79.9517 83.3019 79.9059 83.4166C79.8601 83.5312 79.8122 83.6272 79.7622 83.7106C79.7123 83.794 79.6623 83.8669 79.6102 83.9337H81.5531V80.7123V80.7102Z" fill="#447C2A"/>
<path d="M87.565 84.5988C87.565 84.6238 87.5566 84.6446 87.5421 84.6634C87.5275 84.6822 87.5004 84.6968 87.465 84.7093C87.4275 84.7218 87.3776 84.7301 87.3151 84.7364C87.2526 84.7426 87.1735 84.7447 87.0798 84.7447C86.9861 84.7447 86.9049 84.7426 86.8424 84.7364C86.7799 84.7301 86.732 84.7218 86.6945 84.7093C86.657 84.6968 86.6321 84.6822 86.6175 84.6634C86.6029 84.6446 86.5946 84.6238 86.5946 84.5988V80.7248H85.5638C85.4951 81.292 85.4243 81.7861 85.3535 82.2094C85.2827 82.6326 85.2056 82.9954 85.1244 83.2977C85.0432 83.6001 84.9536 83.8461 84.8558 84.04C84.7579 84.2339 84.6475 84.3861 84.5226 84.4987C84.3976 84.6113 84.256 84.6884 84.0999 84.7301C83.9437 84.7718 83.7646 84.7927 83.5647 84.7927C83.5272 84.7927 83.496 84.7885 83.4689 84.7781C83.4418 84.7677 83.421 84.7489 83.4043 84.7218C83.3877 84.6947 83.3773 84.6551 83.3689 84.6071C83.3627 84.5571 83.3585 84.4945 83.3585 84.4174C83.3585 84.311 83.3606 84.2256 83.3669 84.1588C83.3731 84.0921 83.3793 84.0421 83.3918 84.0066C83.4043 83.9712 83.421 83.9462 83.4397 83.9337C83.4585 83.9211 83.4835 83.9149 83.5105 83.9149C83.5876 83.9149 83.6605 83.9003 83.7313 83.869C83.8021 83.8377 83.8687 83.7773 83.9353 83.6855C84.002 83.5938 84.0645 83.4645 84.1248 83.2998C84.1852 83.1351 84.2456 82.9162 84.3039 82.6451C84.3622 82.3741 84.4205 82.0446 84.4789 81.6548C84.5372 81.2649 84.5955 80.802 84.6559 80.2641C84.6704 80.1369 84.6996 80.0493 84.7454 79.9993C84.7912 79.9492 84.8558 79.9221 84.9411 79.9221H87.2963C87.3859 79.9221 87.4546 79.9471 87.5025 79.9993C87.5504 80.0493 87.5754 80.1285 87.5754 80.2307V84.5988H87.565Z" fill="#447C2A"/>
<path d="M91.963 84.5988C91.963 84.6238 91.9568 84.6446 91.9401 84.6634C91.9234 84.6822 91.9005 84.6968 91.8631 84.7093C91.8256 84.7218 91.7777 84.7301 91.7152 84.7364C91.6527 84.7426 91.5736 84.7447 91.4799 84.7447C91.3862 84.7447 91.305 84.7426 91.2425 84.7364C91.18 84.7301 91.13 84.7218 91.0926 84.7093C91.0551 84.6968 91.028 84.6822 91.0134 84.6634C90.9989 84.6446 90.9905 84.6238 90.9905 84.5988V82.8015H90.6303C90.4824 82.8015 90.37 82.8161 90.2908 82.8453C90.2117 82.8745 90.143 82.9203 90.0826 82.9829C90.0222 83.0454 89.9681 83.1226 89.9223 83.2143C89.8744 83.3081 89.8306 83.4166 89.7848 83.5437L89.4225 84.5842C89.41 84.6133 89.3933 84.6384 89.3746 84.6613C89.3538 84.6822 89.3246 84.6988 89.283 84.7134C89.2434 84.7259 89.1892 84.7364 89.1226 84.7405C89.056 84.7447 88.9706 84.7468 88.8665 84.7468C88.7519 84.7468 88.6624 84.7426 88.5978 84.7364C88.5333 84.728 88.4833 84.7176 88.4479 84.7051C88.4125 84.6905 88.3917 84.6759 88.3813 84.6592C88.3709 84.6425 88.3667 84.6238 88.3667 84.6029C88.3667 84.5779 88.3709 84.5487 88.3792 84.5133C88.3875 84.4778 88.4063 84.4236 88.4333 84.3527L88.7936 83.4103C88.8394 83.2873 88.8894 83.1789 88.9373 83.0871C88.9852 82.9954 89.0414 82.9141 89.1018 82.8411C89.1622 82.7681 89.2267 82.7077 89.2954 82.6576C89.3642 82.6076 89.4391 82.568 89.5204 82.5388C89.3663 82.4971 89.2309 82.4429 89.1143 82.3741C88.9977 82.3053 88.8977 82.2239 88.8186 82.1259C88.7394 82.028 88.677 81.9154 88.6374 81.7882C88.5958 81.661 88.577 81.5171 88.577 81.3587C88.577 81.1418 88.6145 80.9437 88.6895 80.7665C88.7644 80.5893 88.8769 80.4392 89.0247 80.3162C89.1726 80.1931 89.3579 80.0972 89.5787 80.0284C89.7994 79.9596 90.1076 79.9263 90.5032 79.9263H91.6777C91.7568 79.9263 91.8235 79.9513 91.8797 79.9992C91.9359 80.0472 91.963 80.1264 91.963 80.2349V84.6029V84.5988ZM90.9926 80.6748H90.4928C90.2825 80.6748 90.1263 80.6915 90.0222 80.7227C89.9181 80.754 89.8348 80.802 89.7682 80.8624C89.7036 80.9229 89.6557 80.9959 89.6245 81.0814C89.5932 81.1668 89.5807 81.2607 89.5807 81.3649C89.5807 81.4692 89.5974 81.5609 89.6286 81.6464C89.6599 81.7319 89.7098 81.8069 89.7765 81.8695C89.8431 81.932 89.9285 81.9821 90.0326 82.0154C90.1367 82.0509 90.2846 82.0676 90.4783 82.0676H90.9926V80.6748Z" fill="#447C2A"/>
<path d="M98.5414 84.5988C98.5414 84.6238 98.5351 84.6446 98.5185 84.6634C98.5039 84.6822 98.4789 84.6968 98.4414 84.7093C98.4039 84.7218 98.354 84.7301 98.2915 84.7364C98.229 84.7426 98.1499 84.7447 98.0562 84.7447C97.9625 84.7447 97.8833 84.7426 97.8209 84.7364C97.7584 84.7301 97.7084 84.7218 97.6709 84.7093C97.6334 84.6968 97.6064 84.6822 97.5918 84.6634C97.5772 84.6446 97.5668 84.6238 97.5668 84.5988V80.7353H95.7801V84.5988C95.7801 84.6238 95.7718 84.6446 95.7551 84.6634C95.7385 84.6822 95.7135 84.6968 95.676 84.7093C95.6385 84.7218 95.5906 84.7301 95.5281 84.7364C95.4657 84.7426 95.3865 84.7447 95.2907 84.7447C95.195 84.7447 95.1179 84.7426 95.0554 84.7364C94.993 84.7301 94.943 84.7218 94.9055 84.7093C94.868 84.6968 94.843 84.6822 94.8285 84.6634C94.8139 84.6446 94.8055 84.6238 94.8055 84.5988V80.2307C94.8055 80.1264 94.8305 80.0493 94.8826 79.9993C94.9347 79.9492 95.0034 79.9221 95.0908 79.9221H98.2602C98.3498 79.9221 98.4185 79.9471 98.4685 79.9993C98.5185 80.0514 98.5435 80.1285 98.5435 80.2307V84.5988H98.5414Z" fill="#447C2A"/>
<path d="M103.939 82.2698C103.939 82.6681 103.889 83.0246 103.791 83.3395C103.693 83.6543 103.545 83.9212 103.35 84.1401C103.154 84.359 102.912 84.5258 102.625 84.6405C102.338 84.7552 102.004 84.8135 101.625 84.8135C101.246 84.8135 100.926 84.7635 100.649 84.6676C100.372 84.5696 100.139 84.4216 99.9532 84.2193C99.7679 84.0192 99.6284 83.7648 99.5367 83.4541C99.4451 83.1435 99.3972 82.7786 99.3972 82.3553C99.3972 81.9675 99.4472 81.6172 99.5451 81.3066C99.6429 80.9959 99.7908 80.7332 99.9865 80.5143C100.182 80.2974 100.424 80.1286 100.711 80.0139C100.999 79.8971 101.334 79.8408 101.715 79.8408C102.096 79.8408 102.398 79.8888 102.677 79.9847C102.956 80.0806 103.187 80.2286 103.375 80.4309C103.562 80.631 103.702 80.8854 103.797 81.1898C103.891 81.4963 103.939 81.8549 103.939 82.2719V82.2698ZM102.916 82.322C102.916 82.0697 102.898 81.8403 102.858 81.6339C102.819 81.4275 102.752 81.2503 102.656 81.1022C102.56 80.9542 102.433 80.8416 102.275 80.7603C102.117 80.679 101.919 80.6394 101.682 80.6394C101.444 80.6394 101.242 80.6852 101.08 80.7749C100.919 80.8646 100.79 80.9855 100.69 81.1377C100.593 81.2899 100.522 81.465 100.48 81.6673C100.438 81.8695 100.42 82.0822 100.42 82.3074C100.42 82.5701 100.438 82.8057 100.478 83.0142C100.518 83.2227 100.584 83.402 100.678 83.55C100.772 83.6981 100.899 83.8107 101.057 83.8899C101.215 83.967 101.415 84.0067 101.655 84.0067C101.894 84.0067 102.094 83.9629 102.254 83.8732C102.415 83.7836 102.546 83.6626 102.644 83.5104C102.742 83.3582 102.812 83.1789 102.854 82.9746C102.896 82.7702 102.914 82.5534 102.914 82.3241L102.916 82.322Z" fill="#447C2A"/>
<path d="M110.228 84.5967C110.228 84.6238 110.219 84.6467 110.205 84.6655C110.19 84.6842 110.163 84.6988 110.126 84.7113C110.086 84.7238 110.036 84.7322 109.97 84.7384C109.903 84.7447 109.82 84.7468 109.72 84.7468C109.62 84.7468 109.53 84.7447 109.464 84.7384C109.397 84.7322 109.345 84.7218 109.305 84.7092C109.266 84.6967 109.239 84.678 109.22 84.653C109.201 84.63 109.187 84.6008 109.174 84.5654L108.83 83.477C108.783 83.3227 108.733 83.1955 108.676 83.0934C108.62 82.9912 108.558 82.9078 108.487 82.8432C108.416 82.7785 108.337 82.7347 108.25 82.7076C108.162 82.6805 108.06 82.668 107.948 82.668H107.758V84.5904C107.758 84.6175 107.752 84.6404 107.735 84.6592C107.721 84.678 107.696 84.6946 107.658 84.7072C107.623 84.7197 107.575 84.7301 107.512 84.7363C107.45 84.7426 107.373 84.7447 107.279 84.7447C107.185 84.7447 107.106 84.7426 107.046 84.7363C106.985 84.7301 106.936 84.7197 106.9 84.7072C106.865 84.6946 106.84 84.678 106.825 84.6592C106.811 84.6404 106.804 84.6175 106.804 84.5904V82.668H106.615C106.494 82.668 106.388 82.6826 106.296 82.7139C106.205 82.7452 106.125 82.7931 106.055 82.8578C105.986 82.9245 105.926 83.0079 105.873 83.108C105.821 83.2101 105.774 83.3331 105.73 83.4749L105.388 84.5633C105.376 84.5987 105.361 84.6279 105.342 84.6509C105.324 84.6738 105.295 84.6926 105.255 84.7072C105.215 84.7197 105.163 84.7301 105.097 84.7363C105.03 84.7426 104.947 84.7447 104.843 84.7447C104.739 84.7447 104.655 84.7426 104.591 84.7363C104.526 84.7301 104.476 84.7218 104.437 84.7092C104.397 84.6967 104.372 84.6821 104.358 84.6634C104.343 84.6446 104.335 84.6217 104.335 84.5946C104.335 84.5821 104.335 84.5675 104.335 84.5508C104.335 84.5341 104.339 84.5133 104.345 84.4903C104.351 84.4674 104.36 84.4382 104.368 84.4069C104.376 84.3756 104.391 84.336 104.41 84.2922L104.743 83.3352C104.805 83.158 104.866 83.0079 104.928 82.8849C104.991 82.7619 105.055 82.6597 105.124 82.5763C105.193 82.4929 105.268 82.4262 105.351 82.372C105.432 82.3198 105.524 82.2719 105.626 82.2323V82.2281C105.54 82.201 105.459 82.1635 105.386 82.1176C105.313 82.0717 105.245 82.0092 105.182 81.9299C105.12 81.8528 105.059 81.7548 105.001 81.638C104.943 81.5213 104.886 81.3816 104.828 81.2148L104.543 80.3537C104.516 80.2745 104.497 80.2119 104.487 80.166C104.476 80.1202 104.472 80.0805 104.472 80.0493C104.472 80.0222 104.478 79.9992 104.493 79.9805C104.507 79.9617 104.532 79.9471 104.568 79.9367C104.603 79.9263 104.653 79.9179 104.716 79.9117C104.778 79.9054 104.859 79.9033 104.957 79.9033C105.061 79.9033 105.145 79.9054 105.209 79.9117C105.274 79.9179 105.324 79.9283 105.361 79.9408C105.399 79.9534 105.426 79.9721 105.44 79.9971C105.457 80.0201 105.47 80.0493 105.48 80.0847L105.784 81.1022C105.826 81.244 105.871 81.3628 105.919 81.4587C105.967 81.5546 106.023 81.6318 106.088 81.6922C106.153 81.7527 106.227 81.7944 106.311 81.8194C106.394 81.8465 106.494 81.859 106.611 81.859H106.8V80.0555C106.8 80.0284 106.806 80.0055 106.821 79.9867C106.833 79.968 106.858 79.9534 106.896 79.9408C106.933 79.9283 106.981 79.92 107.042 79.9137C107.102 79.9075 107.181 79.9054 107.275 79.9054C107.369 79.9054 107.446 79.9075 107.508 79.9137C107.571 79.92 107.619 79.9283 107.654 79.9408C107.689 79.9534 107.716 79.968 107.731 79.9867C107.746 80.0055 107.754 80.0284 107.754 80.0555V81.859H107.943C108.054 81.859 108.154 81.8445 108.239 81.8153C108.324 81.7861 108.399 81.7423 108.466 81.6797C108.531 81.6172 108.589 81.538 108.639 81.4441C108.689 81.3503 108.733 81.2335 108.772 81.098L109.076 80.0847C109.087 80.0493 109.099 80.0201 109.116 79.9971C109.132 79.9742 109.16 79.9554 109.195 79.9408C109.232 79.9263 109.282 79.9179 109.347 79.9117C109.411 79.9054 109.495 79.9033 109.599 79.9033C109.703 79.9033 109.778 79.9054 109.84 79.9117C109.903 79.9179 109.951 79.9263 109.988 79.9367C110.026 79.9471 110.051 79.9638 110.065 79.9805C110.078 79.9992 110.086 80.0222 110.086 80.0493C110.086 80.0805 110.082 80.1222 110.07 80.1681C110.059 80.2161 110.04 80.2765 110.015 80.3537L109.73 81.2002C109.676 81.3587 109.622 81.4942 109.566 81.6068C109.509 81.7194 109.451 81.8132 109.389 81.8903C109.326 81.9675 109.257 82.03 109.182 82.0821C109.107 82.1322 109.024 82.176 108.935 82.2093V82.2135C109.039 82.2573 109.13 82.3073 109.214 82.3636C109.295 82.4199 109.37 82.4887 109.441 82.5742C109.511 82.6597 109.574 82.7619 109.634 82.8849C109.693 83.0079 109.755 83.158 109.82 83.3352L110.149 84.2922C110.165 84.336 110.18 84.3756 110.19 84.4069C110.201 84.4382 110.207 84.4674 110.213 84.4903C110.219 84.5133 110.224 84.5341 110.226 84.5508C110.226 84.5675 110.23 84.5821 110.23 84.5946L110.228 84.5967Z" fill="#447C2A"/>
<path d="M114.907 84.5987C114.907 84.6237 114.899 84.6446 114.882 84.6634C114.865 84.6821 114.84 84.6967 114.803 84.7092C114.765 84.7217 114.715 84.7301 114.653 84.7363C114.59 84.7426 114.511 84.7447 114.418 84.7447C114.324 84.7447 114.245 84.7426 114.182 84.7363C114.12 84.7301 114.07 84.7217 114.034 84.7092C113.999 84.6967 113.974 84.6821 113.957 84.6634C113.941 84.6446 113.934 84.6237 113.934 84.5987V82.0675C113.934 81.9716 113.934 81.8757 113.939 81.784C113.943 81.6922 113.945 81.6088 113.949 81.5379H113.941C113.922 81.5734 113.897 81.613 113.87 81.6589C113.843 81.7047 113.814 81.7527 113.782 81.8048C113.751 81.8549 113.718 81.907 113.685 81.9612C113.651 82.0154 113.616 82.0654 113.58 82.1155L111.912 84.605C111.892 84.6321 111.873 84.655 111.852 84.6759C111.831 84.6946 111.804 84.7113 111.771 84.7217C111.738 84.7322 111.696 84.7405 111.648 84.7447C111.6 84.7488 111.538 84.7509 111.461 84.7509C111.365 84.7509 111.286 84.7488 111.227 84.7426C111.167 84.7363 111.121 84.728 111.088 84.7155C111.055 84.703 111.032 84.6863 111.019 84.6675C111.007 84.6488 111 84.6237 111 84.5966V80.0534C111 80.0284 111.009 80.0076 111.023 79.9888C111.04 79.97 111.067 79.9554 111.104 79.9429C111.142 79.9304 111.192 79.9221 111.254 79.9158C111.317 79.9096 111.394 79.9075 111.488 79.9075C111.581 79.9075 111.663 79.9096 111.725 79.9158C111.788 79.9221 111.835 79.9304 111.873 79.9429C111.91 79.9554 111.935 79.97 111.952 79.9888C111.967 80.0076 111.975 80.0284 111.975 80.0534V82.5992C111.975 82.6784 111.975 82.7618 111.971 82.8515C111.971 82.9411 111.965 83.0266 111.96 83.1121H111.967C112.008 83.0371 112.062 82.9495 112.127 82.8452C112.192 82.741 112.258 82.6388 112.327 82.5408L113.995 80.0513C114.012 80.0263 114.03 80.0055 114.051 79.9867C114.072 79.9679 114.097 79.9533 114.13 79.9408C114.164 79.9283 114.205 79.92 114.255 79.9158C114.305 79.9116 114.368 79.9075 114.445 79.9075C114.538 79.9075 114.615 79.9096 114.674 79.9158C114.732 79.9221 114.778 79.9304 114.813 79.9429C114.849 79.9554 114.872 79.97 114.886 79.9888C114.901 80.0076 114.907 80.0305 114.907 80.0576V84.605V84.5987Z" fill="#447C2A"/>
<path d="M119.717 84.5988C119.717 84.6238 119.711 84.6446 119.694 84.6634C119.678 84.6822 119.653 84.6968 119.615 84.7093C119.578 84.7218 119.528 84.7301 119.465 84.7364C119.403 84.7426 119.324 84.7447 119.23 84.7447C119.136 84.7447 119.055 84.7426 118.993 84.7364C118.93 84.7301 118.882 84.7218 118.845 84.7093C118.807 84.6968 118.782 84.6822 118.766 84.6634C118.749 84.6446 118.743 84.6238 118.743 84.5988V80.7248H117.712C117.643 81.292 117.572 81.7861 117.502 82.2094C117.429 82.6326 117.354 82.9954 117.273 83.2977C117.191 83.6001 117.102 83.8461 117.004 84.04C116.906 84.2339 116.796 84.3861 116.671 84.4987C116.546 84.6113 116.404 84.6884 116.248 84.7301C116.09 84.7718 115.913 84.7927 115.713 84.7927C115.675 84.7927 115.644 84.7885 115.617 84.7781C115.59 84.7677 115.567 84.7489 115.553 84.7218C115.536 84.6947 115.525 84.6551 115.517 84.6071C115.511 84.5571 115.507 84.4945 115.507 84.4174C115.507 84.311 115.507 84.2256 115.513 84.1588C115.519 84.0921 115.525 84.0421 115.538 84.0066C115.55 83.9712 115.567 83.9462 115.586 83.9337C115.607 83.9211 115.63 83.9149 115.657 83.9149C115.734 83.9149 115.807 83.9003 115.877 83.869C115.948 83.8377 116.017 83.7773 116.081 83.6855C116.148 83.5938 116.211 83.4645 116.271 83.2998C116.331 83.1351 116.39 82.9162 116.448 82.6451C116.506 82.3741 116.565 82.0446 116.623 81.6548C116.681 81.2649 116.739 80.802 116.798 80.2641C116.812 80.1369 116.842 80.0493 116.887 79.9993C116.931 79.9492 116.998 79.9221 117.083 79.9221H119.436C119.526 79.9221 119.594 79.9471 119.642 79.9993C119.69 80.0514 119.715 80.1285 119.715 80.2307V84.5988H119.717Z" fill="#447C2A"/>
<path d="M124.259 83.1415C124.259 83.3687 124.224 83.5772 124.153 83.767C124.082 83.9567 123.972 84.1214 123.822 84.2632C123.67 84.405 123.474 84.5176 123.23 84.601C122.987 84.6844 122.656 84.7281 122.235 84.7281H121.104C121.063 84.7281 121.023 84.7219 120.988 84.7115C120.952 84.701 120.921 84.6823 120.894 84.6552C120.867 84.6301 120.844 84.5968 120.829 84.5593C120.815 84.5217 120.806 84.4738 120.806 84.4196V80.0515C120.806 80.0265 120.815 80.0056 120.829 79.9869C120.846 79.9681 120.873 79.9535 120.911 79.941C120.948 79.9285 121 79.9201 121.063 79.9139C121.125 79.9076 121.202 79.9055 121.294 79.9055C121.389 79.9055 121.469 79.9076 121.531 79.9139C121.594 79.9201 121.641 79.9285 121.679 79.941C121.716 79.9535 121.741 79.9681 121.758 79.9869C121.773 80.0056 121.781 80.0265 121.781 80.0515V81.7111H122.385C122.743 81.7111 123.028 81.7424 123.243 81.8029C123.457 81.8654 123.638 81.9572 123.788 82.0781C123.938 82.199 124.053 82.3512 124.136 82.5305C124.219 82.7119 124.261 82.9163 124.261 83.1435L124.259 83.1415ZM123.257 83.2228C123.257 83.1039 123.241 82.9976 123.205 82.9038C123.17 82.8099 123.118 82.7286 123.045 82.6619C122.972 82.5952 122.883 82.5431 122.77 82.5055C122.658 82.468 122.495 82.4492 122.277 82.4492H121.777V83.9755H122.291C122.518 83.9755 122.689 83.9525 122.805 83.9067C122.92 83.8608 123.01 83.8024 123.074 83.7294C123.139 83.6564 123.184 83.5751 123.214 83.4855C123.243 83.3958 123.255 83.3083 123.255 83.2228H123.257ZM125.819 84.5989C125.819 84.6239 125.81 84.6447 125.796 84.6635C125.779 84.6823 125.752 84.6969 125.717 84.7094C125.679 84.7219 125.629 84.7302 125.567 84.7365C125.504 84.7427 125.425 84.7448 125.331 84.7448C125.238 84.7448 125.161 84.7427 125.098 84.7365C125.036 84.7302 124.986 84.7219 124.948 84.7094C124.911 84.6969 124.884 84.6823 124.867 84.6635C124.85 84.6447 124.842 84.6239 124.842 84.5989V80.0473C124.842 80.0223 124.85 80.0014 124.867 79.9827C124.884 79.9639 124.911 79.9493 124.948 79.9368C124.986 79.9243 125.038 79.916 125.1 79.9097C125.163 79.9035 125.24 79.9014 125.331 79.9014C125.423 79.9014 125.504 79.9035 125.567 79.9097C125.629 79.916 125.679 79.9243 125.717 79.9368C125.754 79.9493 125.781 79.9639 125.796 79.9827C125.812 80.0014 125.819 80.0223 125.819 80.0473V84.5989Z" fill="#447C2A"/>
<path d="M130.321 84.359C130.365 84.4465 130.394 84.5153 130.408 84.5675C130.423 84.6196 130.415 84.6592 130.386 84.6863C130.356 84.7134 130.302 84.7301 130.225 84.7384C130.148 84.7447 130.04 84.7489 129.9 84.7489C129.784 84.7489 129.692 84.7468 129.625 84.7426C129.559 84.7384 129.507 84.7301 129.467 84.7176C129.43 84.7072 129.401 84.6905 129.384 84.6717C129.367 84.6529 129.351 84.6279 129.34 84.5967L128.438 82.864L127.541 84.5967C127.526 84.6258 127.51 84.6509 127.493 84.6717C127.476 84.6926 127.447 84.7072 127.41 84.7176C127.372 84.728 127.318 84.7363 127.249 84.7426C127.181 84.7468 127.091 84.7489 126.981 84.7489C126.852 84.7489 126.752 84.7447 126.683 84.7384C126.612 84.7301 126.564 84.7134 126.539 84.6863C126.514 84.6592 126.51 84.6196 126.525 84.5675C126.539 84.5153 126.571 84.4465 126.616 84.359L127.766 82.2615L126.698 80.2911C126.654 80.2015 126.623 80.1306 126.608 80.0785C126.593 80.0263 126.598 79.9867 126.627 79.9596C126.656 79.9346 126.708 79.9179 126.785 79.9117C126.862 79.9054 126.97 79.9033 127.112 79.9033C127.229 79.9033 127.32 79.9054 127.389 79.9117C127.458 79.9158 127.51 79.9242 127.549 79.9346C127.589 79.945 127.616 79.9617 127.633 79.9805C127.649 79.9992 127.664 80.0242 127.678 80.0555L128.52 81.6443L129.338 80.0555C129.353 80.0263 129.367 80.0013 129.384 79.9805C129.401 79.9596 129.426 79.945 129.463 79.9346C129.498 79.9242 129.548 79.9158 129.611 79.9117C129.673 79.9075 129.761 79.9033 129.873 79.9033C129.996 79.9033 130.094 79.9054 130.167 79.9117C130.238 79.9179 130.288 79.9346 130.315 79.9617C130.342 79.9888 130.348 80.0284 130.336 80.0805C130.323 80.1327 130.294 80.2036 130.252 80.2932L129.184 82.2531L130.321 84.361V84.359Z" fill="#447C2A"/>
<path d="M38.7347 33.8938C38.5244 34.2148 38.8014 34.3295 39.3491 34.3108C40.5069 34.2857 42.987 33.6019 44.5551 32.9743C44.2635 33.2474 42.1561 35.1552 39.7135 35.5951C37.7289 35.9537 39.1887 37.3173 39.1887 37.3173C39.6593 38.0116 40.4965 38.1951 41.2878 38.1847C42.1624 38.1826 42.9828 37.9366 43.2077 37.8636C42.1624 39.2835 41.8167 40.5824 42.6955 40.5095C43.1369 40.499 43.9241 40.105 45.134 39.1396C44.5571 40.499 44.9757 41.3518 45.7129 41.3977C46.2585 41.4581 46.9935 41.0578 47.6287 40.0737C47.6599 41.0099 48.1326 41.6354 48.7802 41.6479C49.1572 41.675 49.5986 41.4852 50.0463 41.0224C50.5565 41.7375 50.9959 41.9773 51.3666 41.9502C51.4207 41.9502 51.4749 41.946 51.5249 41.9335C51.2979 43.3388 51.0063 44.4168 50.5857 45.2862C50.4191 44.8317 50.1609 44.35 49.7506 43.9247C49.7506 43.9247 50.0547 45.0152 50.1796 45.9951C50.165 46.018 50.1505 46.041 50.1359 46.0618C49.9693 45.4384 49.5195 44.5815 48.3409 43.9122C48.3409 43.9122 49.7652 44.9797 49.5736 46.8083L49.5133 46.8228C49.3321 46.5059 48.622 45.4718 47.0873 45.4217C47.0873 45.4217 49.0176 46.2807 48.7324 47.7653C48.7324 47.7653 50.4545 48.0134 52.1225 47.5151C53.0138 47.3483 53.8467 47.146 54.1987 47.0626C55.2607 46.8103 60.2147 48.126 58.2864 47.096C56.5226 46.1515 56.1603 43.491 55.9791 40.2405C57.1515 41.2538 58.3739 41.7688 59.0985 41.7334C59.8961 41.7209 60.1377 41.0828 59.1569 39.763C59.9128 40.2426 60.954 40.9619 61.662 40.9828C62.0993 41.014 62.4179 40.7951 62.4845 40.1196C63.582 40.8931 64.3504 41.2976 64.7377 41.2601C65.4374 41.2601 65.0771 40.0383 63.3945 37.2569C65.0126 38.3348 66.3849 38.6434 67.4219 38.5788C69.2128 38.4912 70.0353 37.3069 69.4585 37.0484C67.7905 36.6585 65.3666 35.5701 63.9443 33.7749C64.6606 34.4171 65.4686 34.8237 65.9455 34.8278C66.6868 34.8758 66.7243 34.046 64.6711 31.7879C65.9288 32.9326 67.1054 33.3037 67.9967 33.2829C68.0675 33.2829 68.132 33.2745 68.1986 33.2703C68.2153 33.2703 68.234 33.2683 68.2507 33.2662C69.1336 33.1807 69.6896 32.4843 69.673 32.4947C69.9125 32.084 69.5126 31.8588 69.1566 31.7254C67.1241 30.7537 65.3895 29.0107 64.0817 27.351L64.1421 27.3656C63.3945 26.417 62.7823 25.4954 62.3346 24.7615C63.2717 25.4578 64.013 25.7498 64.4232 25.7643C64.9334 25.8102 65.0001 25.4745 64.4108 24.972C62.9406 23.7878 61.7411 21.4234 61.0081 19.6907C61.3059 19.8888 61.5558 19.9951 61.7203 19.9826C62.1888 20.0097 62.1014 19.2508 60.8228 17.2534C61.7869 18.127 62.6199 18.544 63.0593 18.5085C63.4279 18.5044 63.5591 18.2187 63.3133 17.6558C63.1488 17.2763 62.8781 16.9552 62.5762 16.6717C59.388 13.6901 58.9986 10.2478 58.9778 10.0414C59.4484 10.5981 60.0002 11.0025 60.0919 11.0296C60.3209 11.1151 60.2293 10.6835 59.5442 9.48675C60.5271 10.254 61.333 10.5897 61.6203 10.548C61.9035 10.5438 61.8327 10.2728 61.1893 9.76822C60.7332 9.43254 59.8503 8.44842 59.8586 8.48178C58.0636 6.25917 56.406 2.59582 55.6917 0.906975C55.7063 0.90489 55.723 0.89655 55.7376 0.898635C55.4918 0.34194 55.3565 0 55.3565 0C55.3523 0.02502 55.344 0.052125 55.3377 0.077145C55.319 0.027105 55.3065 0 55.3065 0C55.2565 0.235605 53.6739 7.3809 50.1109 10.1435C49.2613 10.8024 49.4654 11.1777 50.0505 11.1402C50.4795 11.1297 51.1438 10.8858 51.7622 10.3708C51.4457 11.0734 51.5561 11.0547 51.3416 11.7302C50.3504 14.1968 48.8281 17.1741 47.8036 17.8705C47.156 18.3126 47.1352 18.6232 47.5225 18.6357C47.5371 18.6357 47.5579 18.6357 47.5725 18.6357C47.5954 18.6357 47.6162 18.6357 47.6433 18.6357C47.9744 18.617 48.5387 18.4147 49.2467 17.9498C48.8344 19.2779 47.6974 22.2824 45.4297 24.0526C43.9407 25.2118 44.3905 25.6809 45.3568 25.6392C45.4713 25.6372 45.5921 25.6246 45.7212 25.608C45.0444 27.1613 43.3618 29.8739 39.6468 30.7141C38.3745 31.0415 39.0992 32.1382 40.7692 32.0423C41.1149 32.0277 41.5023 31.9568 41.9208 31.8213C41.3836 32.0569 39.3136 33.0076 38.7347 33.8958V33.8938Z" fill="#447C2A"/>
<path d="M124.905 33.8938C125.115 34.2148 124.838 34.3295 124.29 34.3108C123.132 34.2857 120.652 33.6019 119.084 32.9743C119.376 33.2474 121.483 35.1552 123.926 35.5951C125.91 35.9537 124.451 37.3173 124.451 37.3173C123.98 38.0116 123.143 38.1951 122.352 38.1847C121.477 38.1826 120.656 37.9366 120.432 37.8636C121.477 39.2835 121.823 40.5824 120.944 40.5095C120.502 40.499 119.715 40.105 118.505 39.1396C119.082 40.499 118.664 41.3518 117.926 41.3977C117.381 41.4581 116.646 41.0578 116.011 40.0737C115.979 41.0099 115.507 41.6354 114.859 41.6479C114.482 41.675 114.041 41.4852 113.593 41.0224C113.083 41.7375 112.643 41.9773 112.273 41.9502C112.219 41.9502 112.164 41.946 112.114 41.9335C112.341 43.3388 112.633 44.4168 113.054 45.2862C113.22 44.8317 113.478 44.35 113.889 43.9247C113.889 43.9247 113.585 45.0152 113.46 45.9951C113.474 46.018 113.489 46.041 113.503 46.0618C113.67 45.4384 114.12 44.5815 115.298 43.9122C115.298 43.9122 113.874 44.9797 114.066 46.8083L114.126 46.8228C114.307 46.5059 115.017 45.4718 116.552 45.4217C116.552 45.4217 114.622 46.2807 114.907 47.7653C114.907 47.7653 113.185 48.0134 111.517 47.5151C110.626 47.3483 109.793 47.146 109.441 47.0626C108.379 46.8103 103.425 48.126 105.353 47.096C107.117 46.1515 107.479 43.491 107.66 40.2405C106.488 41.2538 105.265 41.7688 104.541 41.7334C103.743 41.7209 103.502 41.0828 104.482 39.763C103.727 40.2426 102.685 40.9619 101.977 40.9828C101.54 41.014 101.221 40.7951 101.155 40.1196C100.057 40.8931 99.2889 41.2976 98.9016 41.2601C98.2019 41.2601 98.5622 40.0383 100.245 37.2569C98.6267 38.3348 97.2544 38.6434 96.2174 38.5788C94.4265 38.4912 93.604 37.3069 94.1808 37.0484C95.8488 36.6585 98.2727 35.5701 99.695 33.7749C98.9786 34.4171 98.1707 34.8237 97.6938 34.8278C96.9525 34.8758 96.915 34.046 98.9682 31.7879C97.7105 32.9326 96.5339 33.3037 95.6426 33.2829C95.5718 33.2829 95.5073 33.2745 95.4406 33.2703C95.424 33.2703 95.4052 33.2683 95.3886 33.2662C94.5056 33.1807 93.9496 32.4843 93.9663 32.4947C93.7268 32.084 94.1266 31.8588 94.4827 31.7254C96.5152 30.7537 98.2498 29.0107 99.5575 27.351L99.4972 27.3656C100.245 26.417 100.857 25.4954 101.305 24.7615C100.368 25.4578 99.6263 25.7498 99.216 25.7643C98.7058 25.8102 98.6392 25.4745 99.2285 24.972C100.699 23.7878 101.898 21.4234 102.631 19.6907C102.333 19.8888 102.083 19.9951 101.919 19.9826C101.45 20.0097 101.538 19.2508 102.817 17.2534C101.852 18.127 101.019 18.544 100.58 18.5085C100.211 18.5044 100.08 18.2187 100.326 17.6558C100.49 17.2763 100.761 16.9552 101.063 16.6717C104.251 13.6901 104.641 10.2478 104.662 10.0414C104.191 10.5981 103.639 11.0025 103.547 11.0296C103.318 11.1151 103.41 10.6835 104.095 9.48675C103.112 10.254 102.306 10.5897 102.019 10.548C101.736 10.5438 101.807 10.2728 102.45 9.76822C102.906 9.43254 103.789 8.44842 103.781 8.48178C105.576 6.25917 107.233 2.59582 107.948 0.906975C107.933 0.90489 107.916 0.89655 107.902 0.898635C108.137 0.344025 108.27 0 108.27 0C108.274 0.02502 108.283 0.052125 108.289 0.077145C108.32 0.027105 108.333 0 108.333 0C108.383 0.235605 109.965 7.3809 113.528 10.1435C114.378 10.8024 114.174 11.1777 113.589 11.1402C113.16 11.1297 112.496 10.8858 111.877 10.3708C112.194 11.0734 112.083 11.0547 112.298 11.7302C113.289 14.1968 114.811 17.1741 115.836 17.8705C116.483 18.3126 116.504 18.6232 116.117 18.6357C116.102 18.6357 116.081 18.6357 116.067 18.6357C116.044 18.6357 116.023 18.6357 115.996 18.6357C115.665 18.617 115.101 18.4147 114.393 17.9498C114.805 19.2779 115.942 22.2824 118.21 24.0526C119.699 25.2118 119.249 25.6809 118.283 25.6392C118.168 25.6372 118.047 25.6246 117.918 25.608C118.595 27.1613 120.277 29.8739 123.992 30.7141C125.265 31.0415 124.54 32.1382 122.87 32.0423C122.524 32.0277 122.137 31.9568 121.718 31.8213C122.256 32.0569 124.326 33.0076 124.905 33.8958V33.8938Z" fill="#447C2A"/>
<path d="M4.74375 62.0579L1.65971 71.7677C1.43689 71.7969 1.1641 71.8094 0.843408 71.8011C0.522718 71.7927 0.272829 71.7906 0.0958252 71.7906C0.616426 70.2394 1.10579 68.7632 1.55975 67.36C2.01372 65.9589 2.40937 64.7204 2.74464 63.6466C3.07991 62.5729 3.34437 61.7076 3.53804 61.0508C3.7317 60.394 3.82957 60.0438 3.82957 60C3.8733 59.7915 3.86706 59.5413 3.80667 59.2494C3.74628 58.9596 3.67339 58.6635 3.58385 58.3653C3.49431 58.0672 3.39643 57.7836 3.29231 57.5146C3.18819 57.2457 3.11323 57.0309 3.0695 56.8662H7.0927L11.8739 71.7906H7.94023L4.74375 62.0579Z" fill="#447C2A"/>
<path d="M21.2801 56.8682L20.7887 58.3443L16.7217 58.3673V62.7083L20.6325 62.7312L20.0973 63.9613H16.7238V70.2935H20.9698L21.4175 71.7926H12.9672L12.9901 56.8682H21.2801Z" fill="#447C2A"/>
<path d="M28.0375 71.7906C27.5898 71.7906 27.1504 71.6822 26.7547 71.4779C26.1133 71.1651 25.5324 70.7544 25.0118 70.2477C24.4912 69.7411 24.0476 69.174 23.6832 68.5464C23.3188 67.9188 23.0356 67.2516 22.8336 66.5448C22.6316 65.8359 22.5316 65.1249 22.5316 64.4077C22.5316 63.3193 22.7294 62.3164 23.123 61.399C23.5166 60.4816 24.058 59.6872 24.7431 59.0158C25.4282 58.3445 26.2362 57.8191 27.167 57.4375C28.0979 57.058 29.0933 56.8662 30.1511 56.8662H34.0619L33.5038 58.3883C33.281 58.3883 32.9853 58.3841 32.6209 58.3778C32.2564 58.3716 31.8795 58.3674 31.4922 58.3674C31.1049 58.3674 30.78 58.3716 30.476 58.3778C30.1699 58.3862 29.9658 58.4112 29.8617 58.4571C29.2515 58.6802 28.7476 59.0096 28.354 59.4412C27.9584 59.8749 27.6377 60.3586 27.394 60.8965C27.1483 61.4324 26.9775 61.9995 26.8797 62.5979C26.7818 63.1963 26.7339 63.7696 26.7339 64.3201C26.7339 66.0944 27.0254 67.5018 27.6064 68.538C28.1874 69.5743 29.0391 70.1643 30.1719 70.2832C30.3052 70.2936 30.349 70.2936 30.6905 70.2936H31.8524C32.3439 70.2936 32.902 70.2853 33.5288 70.2707L34.1535 71.7927H28.0396L28.0375 71.7906Z" fill="#447C2A"/>
<path d="M41.9042 71.7907V63.2213L40.7422 64.072C40.6381 64.0574 39.6156 63.8781 39.2679 64.318C39.1721 64.439 39.145 64.5286 39.1346 64.8101V71.7907H35.3363V56.9121H39.2241V62.6625H41.95V56.9121H45.7275V71.7907H41.9063H41.9042Z" fill="#447C2A"/>
<path d="M54.5298 71.7905C54.3965 71.3735 54.2362 70.8877 54.0488 70.3373C53.8614 69.7868 53.6802 69.2489 53.5011 68.7256C53.397 68.4274 53.2929 68.1251 53.1888 67.8186C53.0846 67.5121 52.9805 67.1952 52.8764 66.8678C52.7723 67.0763 52.6223 67.2702 52.4287 67.4496C52.235 67.6289 51.9685 67.7394 51.5374 67.7394C51.2667 67.7477 50.5733 67.7394 50.5733 67.7394H50.138C49.9819 67.7394 49.8153 67.7394 49.6445 67.7477C49.5404 68.0021 49.4571 68.2252 49.3676 68.4775C49.278 68.7318 49.1968 68.9841 49.1218 69.2385C48.9719 69.6722 48.8199 70.1142 48.6637 70.5687C48.5075 71.0232 48.3701 71.4236 48.2514 71.7655C48.0286 71.7947 47.7558 71.8072 47.4351 71.7989C47.1144 71.7905 46.8645 71.7884 46.6875 71.7884L48.1618 67.6727L47.5579 67.6059C47.6329 67.5309 47.7058 67.4537 47.7808 67.3703C47.8557 67.289 47.9286 67.2098 48.0036 67.1347C48.1223 67.0013 48.2347 66.8595 48.3388 66.7094C48.443 66.5613 48.5179 66.4175 48.5617 66.284C48.7095 65.7628 48.8886 65.1498 49.0968 64.4492C49.3051 63.7487 49.5071 63.0731 49.7007 62.4247C49.8944 61.7763 50.0547 61.2196 50.1818 60.7588C50.3088 60.2959 50.3713 60.0436 50.3713 59.9978C50.415 59.7893 50.4129 59.5391 50.3609 59.2472C50.3088 58.9574 50.238 58.6613 50.1485 58.3631C50.0589 58.065 49.9652 57.7814 49.8694 57.5124C49.7715 57.2435 49.7007 57.0287 49.657 56.864H53.6802L58.4614 71.7884H54.5277L54.5298 71.7905ZM51.3333 62.0577C51.2584 62.162 51.148 62.4372 50.9981 62.8855C50.8481 63.3338 50.7003 63.8175 50.5504 64.3408C50.4608 64.639 50.3713 64.9559 50.2817 65.2916C50.1922 65.6273 50.0943 65.9817 49.9902 66.3549H52.7161L51.3313 62.0598L51.3333 62.0577Z" fill="#447C2A"/>
<path d="M159.066 71.7739C158.933 71.3569 158.773 70.8711 158.585 70.3207C158.398 69.7702 158.217 69.2323 158.038 68.709C157.933 68.4108 157.829 68.1085 157.725 67.802C157.621 67.4955 157.517 67.1786 157.413 66.8512C157.309 67.0597 157.159 67.2537 156.965 67.433C156.772 67.6123 156.505 67.7228 156.074 67.7228C155.803 67.7311 155.11 67.7228 155.11 67.7228H154.675C154.518 67.7228 154.352 67.7228 154.181 67.7311C154.077 67.9855 153.994 68.2086 153.904 68.4609C153.815 68.7152 153.733 68.9675 153.658 69.2219C153.508 69.6556 153.356 70.0976 153.2 70.5521C153.044 71.0067 152.907 71.407 152.788 71.7489C152.565 71.7781 152.292 71.7906 151.972 71.7823C151.651 71.7739 151.401 71.7718 151.224 71.7718L152.698 67.6561L152.094 67.5893C152.169 67.5143 152.242 67.4371 152.317 67.3537C152.392 67.2724 152.465 67.1932 152.54 67.1181C152.659 66.9847 152.771 66.8429 152.875 66.6928C152.979 66.5447 153.054 66.4009 153.098 66.2674C153.246 65.7462 153.425 65.1332 153.633 64.4326C153.842 63.7321 154.044 63.0565 154.237 62.4081C154.431 61.7597 154.591 61.203 154.718 60.7422C154.845 60.2793 154.908 60.027 154.908 59.9812C154.951 59.7727 154.949 59.5225 154.897 59.2306C154.845 58.9408 154.774 58.6447 154.685 58.3465C154.595 58.0484 154.502 57.7648 154.406 57.4959C154.308 57.2269 154.237 57.0121 154.194 56.8474H158.217L162.998 71.7718H159.064L159.066 71.7739ZM155.87 62.0411C155.795 62.1454 155.685 62.4206 155.535 62.8689C155.385 63.3172 155.237 63.8009 155.087 64.3242C154.997 64.6224 154.908 64.9393 154.818 65.275C154.729 65.6107 154.631 65.9651 154.527 66.3383H157.253L155.868 62.0432L155.87 62.0411Z" fill="#447C2A"/>
<path d="M108.899 71.7947C108.766 71.3777 108.606 70.8919 108.418 70.3414C108.231 69.791 108.05 69.2531 107.871 68.7297C107.766 68.4316 107.662 68.1293 107.558 67.8228C107.454 67.5163 107.35 67.1993 107.246 66.872C107.142 67.0805 106.992 67.2744 106.798 67.4537C106.604 67.633 106.338 67.7435 105.907 67.7435C105.636 67.7519 104.943 67.7435 104.943 67.7435H104.507C104.351 67.7435 104.185 67.7435 104.014 67.7519C103.91 68.0062 103.826 68.2293 103.737 68.4816C103.647 68.736 103.566 68.9883 103.491 69.2426C103.341 69.6763 103.189 70.1183 103.033 70.5729C102.877 71.0274 102.739 71.4277 102.621 71.7697C102.398 71.7989 102.125 71.8114 101.804 71.803C101.484 71.7947 101.234 71.7926 101.057 71.7926L102.531 67.6768L101.927 67.6101C102.002 67.535 102.075 67.4579 102.15 67.3745C102.225 67.2932 102.298 67.2139 102.373 67.1389C102.492 67.0054 102.604 66.8637 102.708 66.7135C102.812 66.5655 102.887 66.4216 102.931 66.2882C103.079 65.7669 103.258 65.154 103.466 64.4534C103.674 63.7528 103.876 63.0773 104.07 62.4289C104.264 61.7804 104.424 61.2237 104.551 60.7629C104.678 60.3001 104.741 60.0478 104.741 60.0019C104.784 59.7934 104.782 59.5432 104.73 59.2513C104.678 58.9615 104.607 58.6654 104.518 58.3673C104.428 58.0691 104.335 57.7856 104.239 57.5166C104.141 57.2476 104.07 57.0329 104.026 56.8682H108.05L112.831 71.7926H108.897L108.899 71.7947ZM105.703 62.0619C105.628 62.1662 105.517 62.4414 105.367 62.8896C105.218 63.3379 105.07 63.8216 104.92 64.345C104.83 64.6431 104.741 64.9601 104.651 65.2957C104.562 65.6314 104.464 65.9859 104.36 66.3591H107.085L105.701 62.064L105.703 62.0619Z" fill="#447C2A"/>
<path d="M59.2902 71.7905C59.4984 71.5361 59.7483 71.2276 60.0398 70.8627C60.3293 70.4978 60.6396 70.1017 60.9665 69.6763C61.2934 69.251 61.6141 68.8236 61.9265 68.3899C62.2388 67.9583 63.9589 65.2832 64.0276 65.1685C64.1963 64.8871 64.3775 64.8037 63.5133 64.3179C63.051 64.0948 62.597 63.8779 62.1493 63.6694C61.7016 63.4609 61.3038 63.2149 60.954 62.9313C60.6042 62.6478 60.321 62.3079 60.1044 61.9139C59.8878 61.5198 59.7795 61.0236 59.7795 60.4252C59.7795 59.7684 59.8878 59.2138 60.1044 58.7593C60.321 58.3047 60.625 57.9399 61.0206 57.6625C61.4163 57.3873 61.8848 57.1851 62.4283 57.0579C62.9718 56.9307 63.5799 56.8682 64.2504 56.8682H70.5081V71.7697H66.7327V67.3849C66.464 67.7581 66.2475 68.0855 66.085 68.369C65.9205 68.6526 65.7456 68.9466 65.5603 69.2531C65.3749 69.5596 65.1438 69.9098 64.8668 70.3039C64.5899 70.7001 64.215 71.1963 63.7382 71.7926H59.2902V71.7905ZM63.178 61.0945C63.178 61.5115 63.2259 61.8826 63.3238 62.2016C63.4196 62.5227 63.5737 62.8167 63.7819 63.0856C63.9901 63.3546 64.2629 63.6194 64.5982 63.88C64.9335 64.1406 65.4187 64.4534 65.881 64.737C66.5619 65.1435 66.5994 65.3875 66.7118 65.9963V57.8523H65.9518C65.5353 57.8523 65.1542 57.9503 64.8127 58.1442C64.4691 58.3381 64.1796 58.5925 63.9402 58.9052C63.7007 59.218 63.5154 59.5682 63.3821 59.956C63.2488 60.3439 63.1801 60.7254 63.1801 61.0965L63.178 61.0945Z" fill="#447C2A"/>
<path d="M80.9222 71.7907L82.0842 68.8362L77.1906 56.91H81.549L84.2978 63.2651L86.8446 56.8892H88.4084L82.509 71.7907H80.9222Z" fill="#447C2A"/>
<path d="M94.3391 71.7906C93.8914 71.7906 93.452 71.6822 93.0564 71.4779C92.415 71.1651 91.834 70.7544 91.3134 70.2477C90.7928 69.7411 90.3492 69.174 89.9827 68.5464C89.6183 67.9188 89.3351 67.2516 89.1331 66.5448C88.9311 65.8359 88.8312 65.1249 88.8312 64.4077C88.8312 63.3193 89.029 62.3164 89.4226 61.399C89.8162 60.4816 90.3576 59.6872 91.0427 59.0158C91.7278 58.3445 92.5358 57.8191 93.4666 57.4375C94.3974 57.058 95.3928 56.8662 96.4507 56.8662H100.361L99.8034 58.3883C99.5805 58.3883 99.2848 58.3841 98.9204 58.3778C98.556 58.3716 98.1791 58.3674 97.7918 58.3674C97.4044 58.3674 97.0796 58.3716 96.7755 58.3778C96.4694 58.3862 96.2654 58.4112 96.1612 58.4571C95.5511 58.6802 95.0472 59.0096 94.6536 59.4412C94.2579 59.8749 93.9372 60.3586 93.6915 60.8965C93.4458 61.4324 93.275 61.9995 93.1772 62.5979C93.0793 63.1942 93.0314 63.7696 93.0314 64.3201C93.0314 66.0944 93.3229 67.5018 93.9039 68.538C94.4849 69.5743 95.3408 70.1518 96.4736 70.2728C96.7526 70.304 96.6444 70.2957 96.9879 70.2957H98.1499C98.6414 70.2957 99.2015 70.2874 99.8263 70.2728L100.453 71.7948H94.3391V71.7906Z" fill="#447C2A"/>
<path d="M125.034 71.7905H114.978V74.1403L113.347 74.5198V70.2685H114.599C115.061 68.8674 115.482 67.5496 115.861 66.3195C116.24 65.0893 116.565 64.0114 116.833 63.0857C117.102 62.162 117.306 61.426 117.448 60.8818C117.589 60.3376 117.66 60.0436 117.66 59.9978C117.704 59.7893 117.697 59.5391 117.637 59.2472C117.577 58.9574 117.504 58.6613 117.414 58.3631C117.325 58.065 117.227 57.7814 117.123 57.5124C117.019 57.2435 116.944 57.0287 116.9 56.864H120.923L125.169 70.2664H126.666V74.1362L125.036 74.5156V71.7864L125.034 71.7905ZM118.576 62.0577L116.117 70.2685H121.213L118.576 62.0577Z" fill="#447C2A"/>
<path d="M131.491 56.8683V60.5817C131.491 61.178 131.66 61.6784 131.995 62.0808C132.33 62.4832 132.751 62.8418 133.257 63.1546C133.763 63.4673 134.311 63.7634 134.9 64.0386C135.487 64.3138 136.037 64.6349 136.543 64.9998C137.049 65.3647 137.47 65.7983 137.805 66.2967C138.14 66.7971 138.307 67.4184 138.307 68.1648C138.307 68.538 138.244 68.9363 138.117 69.3616C137.99 69.7869 137.805 70.1789 137.559 70.5355C137.314 70.8941 137.005 71.1922 136.633 71.4299C136.26 71.6697 135.829 71.7885 135.337 71.7885H127.762V56.8433L131.493 56.8662L131.491 56.8683ZM135 67.6748C135.015 66.9889 134.896 66.4447 134.644 66.0423C134.39 65.6399 134.082 65.2959 133.717 65.0123C133.351 64.7287 132.972 64.4639 132.578 64.2179C132.183 63.9719 131.845 63.655 131.562 63.2671V70.696H131.941C132.357 70.696 132.749 70.6251 133.113 70.4833C133.478 70.3415 133.803 70.1435 134.086 69.8912C134.369 69.6368 134.592 69.3241 134.756 68.9509C134.921 68.5776 135.002 68.1523 135.002 67.6748H135Z" fill="#447C2A"/>
<path d="M143.559 58.3445V60.5817C143.559 61.178 143.727 61.6784 144.063 62.0808C144.398 62.4832 144.819 62.8418 145.325 63.1546C145.831 63.4673 146.378 63.7634 146.968 64.0386C147.555 64.3138 148.105 64.6349 148.611 64.9998C149.117 65.3647 149.537 65.7983 149.873 66.2967C150.208 66.7971 150.374 67.4184 150.374 68.1648C150.374 68.538 150.312 68.9363 150.185 69.3616C150.058 69.7869 149.873 70.1789 149.627 70.5355C149.381 70.8941 149.073 71.1922 148.7 71.4299C148.327 71.6697 147.896 71.7885 147.405 71.7885H139.829V56.8433H149.148L148.656 58.3424H143.561L143.559 58.3445ZM147.068 67.6748C147.082 66.9889 146.963 66.4447 146.711 66.0423C146.457 65.6399 146.149 65.2959 145.785 65.0123C145.418 64.7287 145.039 64.4639 144.646 64.2179C144.25 63.9719 143.913 63.655 143.629 63.2671V70.696H144.008C144.425 70.696 144.816 70.6251 145.181 70.4833C145.545 70.3415 145.87 70.1435 146.153 69.8912C146.437 69.6368 146.659 69.3241 146.824 68.9509C146.988 68.5776 147.07 68.1523 147.07 67.6748H147.068Z" fill="#447C2A"/>
<path d="M162.904 45.9033H0V46.9646H162.904V45.9033Z" fill="#447C2A"/>
<path d="M27.9417 82.2302H0V83.2915H27.9417V82.2302Z" fill="#447C2A"/>
<path d="M162.902 82.2302H134.96V83.2915H162.902V82.2302Z" fill="#447C2A"/>
<path d="M105.492 27.4469L80.9408 12.1555L46.0085 38.1388H49.1197L80.945 14.5324L104.624 29.288L105.492 27.4469Z" fill="#447C2A"/>
<path d="M80.8451 25.1472H78.2108V29.826H80.8451V25.1472Z" fill="#447C2A"/>
<path d="M80.8451 31.0393H78.2108V35.718H80.8451V31.0393Z" fill="#447C2A"/>
<path d="M84.6913 25.1472H82.057V29.826H84.6913V25.1472Z" fill="#447C2A"/>
<path d="M84.6913 31.0393H82.057V35.718H84.6913V31.0393Z" fill="#447C2A"/>
<path d="M105.297 31.4147L104.92 32.0194L80.968 17.0574L52.6286 38.1388H51.4603L80.9263 16.1921L105.297 31.4147Z" fill="#447C2A"/>
</g>
<defs>
<clipPath id="clip0_1_709">
<rect width="163" height="86" fill="white"/>
</clipPath>
</defs>
</svg>
